<mxfile host="app.diagrams.net" modified="2024-05-02T15:15:11.654Z" agent="Mozilla/5.0 (Macintosh; Intel Mac OS X 10_15_7) AppleWebKit/537.36 (KHTML, like Gecko) Chrome/123.0.0.0 Safari/537.36" version="24.3.1" etag="8kSqy6p06BZ6_6AyC-Tj" type="github">
  <diagram name="Page-1" id="2gghnUwMaQUXYotDBbB4">
    <mxGraphModel>
      <root>
        <mxCell id="0" />
        <mxCell id="1" parent="0" />
      </root>
    </mxGraphModel>
  </diagram>
</mxfile>
